# xmcd
#
# Track frame offsets: 
#        150
#        17434
#        33708
#        46629
#        60027
#        75787
#        89888
#        105041
#        117182
#        131528
#        144055
#        160396
#        177450
#        193054
#        211409
#        225840
#        241302
#        255612
#        268079
#        282297
#
# Disc length: 4005 seconds
#
# Revision: 0
# Processed by: cddbd v1.5.2PL0 Copyright (c) Steve Scherf et al.
# Submitted via: ExactAudioCopy v1.1
#
DISCID=fa0fa314
DTITLE=Various Artist - MNM Big Hits 2019 Vol. 2 - CD 1
DYEAR=2019
DGENRE=Top 40
TTITLE0=Calvin Harris and Rag'n'Bone Man - Giant
TTITLE1=Mark Ronson Feat. Miley Cyrus - Nothing Breaks Like A Heart
TTITLE2=Sam Smith and Normani - Dancing With A Stranger
TTITLE3=Mabel - Don't Call Me Up
TTITLE4=Robin Schulz Feat. Erika Sirola - Speechless
TTITLE5=Lost Frequencies Feat. Flynn - Recognise
TTITLE6=Dermot Kennedy - Power Over Me
TTITLE7=Lauv and Troye Sivan - I'm So Tired
TTITLE8=Alvaro Soler - Loca
TTITLE9=Dimitri Vegas and Like Mike Feat. Era Istrefi - Selfish
TTITLE10=Louis Tomlinson - Two Of Us
TTITLE11=The Blockparty and Esko Feat. Mouad Locos, JoeyAK, Young Ellens
TTITLE11=and Chivv - Huts
TTITLE12=Kygo Feat. Valerie Broussard - Think About You
TTITLE13=Tourist LeMC Feat. Alice On The Roof - Oprechte Leugens
TTITLE14=Rita Ora Feat. 6lack - Only Want You
TTITLE15=Frenna Feat. Bløf - Regen
TTITLE16=Laura Tesoro - Up
TTITLE17=Bob Sinclar Feat. Robbie Williams - Electrico Romantico
TTITLE18=Ariana Grande - Break Up With Your Girlfriend, I'm Bored
TTITLE19=Alan Walker and Sophia Somajo - Diamond Heart
EXTD=
EXTT0=
EXTT1=
EXTT2=
EXTT3=
EXTT4=
EXTT5=
EXTT6=
EXTT7=
EXTT8=
EXTT9=
EXTT10=
EXTT11=
EXTT12=
EXTT13=
EXTT14=
EXTT15=
EXTT16=
EXTT17=
EXTT18=
EXTT19=
PLAYORDER=
